<svg width="32" height="32" viewBox="0 0 99.37 76.06" fill="none" xmlns="http://www.w3.org/2000/svg">
  <path d="M51.3515 73.4566C74.1374 58.6424 76.2632 40.2409 76.2632 29.6783C76.2632 6.34763 59.0354 4.41227 50.4214 6.36092C42.9147 8.61959 40.0581 13.0041 38.1981 16.1928C36.2848 16.7774 34.3893 19.0493 33.6807 20.1122C34.7436 21.4408 37.1352 22.5702 38.1981 22.9688C39.4735 24.1911 42.5382 25.781 43.9112 26.4232C58.9512 20.2584 66.6971 23.1016 68.6901 25.2939C78.575 39.8025 61.2497 63.4476 51.3515 73.4566ZM78.6617 3.43603C67.8218 1.83465 58.219 3.32321 54.7725 4.26766C63.1057 4.1905 81.5545 6.43626 88.6834 16.0366C88.6165 14.7185 92.4536 14.3768 94.3805 14.3708C92.107 12.6394 89.0726 11.1882 87.8396 10.679C90.2033 8.84776 96.5111 10.034 99.3695 10.856C96.9835 9.04993 89.5015 5.03741 78.6617 3.43603ZM57.3967 25.626C39.3805 25.626 11.6255 47.9912 0 59.1738C4.3579 70.6532 15.7221 76.5788 20.8594 78.1068C44.7747 82.6772 59.5225 63.2261 63.907 52.9293C80.0498 22.1716 57.2638 25.626 57.3967 25.626Z" fill="#0A2540"></path>
</svg>